<svg xmlns="http://www.w3.org/2000/svg" width="534.3338012695312" height="560.9788818359375" viewBox="-311.8653564453125 -254.38314819335938 534.3338012695312 560.9788818359375"><title>Neo4j Graph Visualization</title><desc>Created using Neo4j (http://www.neo4j.com/)</desc><g class="layer relationships"><g class="relationship" transform="translate(64.35059430905821 -108.96314330182138) rotate(201.04998459905812)"><path class="b-outline" fill="#A5ABB6" stroke="none" d="M 25 0.5 L 50.815454007304595 0.5 L 50.815454007304595 -0.5 L 25 -0.5 Z M 110.9092040073046 0.5 L 136.7246580146092 0.5 L 136.7246580146092 3.5 L 143.7246580146092 0 L 136.7246580146092 -3.5 L 136.7246580146092 -0.5 L 110.9092040073046 -0.5 Z"/><text text-anchor="middle" pointer-events="none" font-size="8px" fill="#000000" x="80.8623290073046" y="3" transform="rotate(180 80.8623290073046 0)" font-family="Helvetica Neue, Helvetica, Arial, sans-serif">BELONGS_TO</text></g><g class="relationship" transform="translate(-236.8508991598243 -129.77922618333676) rotate(344.52768063508825)"><path class="b-outline" fill="#A5ABB6" stroke="none" d="M 25 0.5 L 41.02373766671238 0.5 L 41.02373766671238 -0.5 L 25 -0.5 Z M 101.11748766671238 0.5 L 117.14122533342476 0.5 L 117.14122533342476 3.5 L 124.14122533342476 0 L 117.14122533342476 -3.5 L 117.14122533342476 -0.5 L 101.11748766671238 -0.5 Z"/><text text-anchor="middle" pointer-events="none" font-size="8px" fill="#000000" x="71.07061266671238" y="3" font-family="Helvetica Neue, Helvetica, Arial, sans-serif">BELONGS_TO</text></g><g class="relationship" transform="translate(193.46844833166566 141.44603291317793) rotate(469.01992726282623)"><path class="b-outline" fill="#A5ABB6" stroke="none" d="M 25 0.5 L 38.45913529375616 0.5 L 38.45913529375616 -0.5 L 25 -0.5 Z M 98.55288529375616 0.5 L 112.01202058751232 0.5 L 112.01202058751232 3.5 L 119.01202058751232 0 L 112.01202058751232 -3.5 L 112.01202058751232 -0.5 L 98.55288529375616 -0.5 Z"/><text text-anchor="middle" pointer-events="none" font-size="8px" fill="#000000" x="68.50601029375616" y="3" transform="rotate(180 68.50601029375616 0)" font-family="Helvetica Neue, Helvetica, Arial, sans-serif">BELONGS_TO</text></g><g class="relationship" transform="translate(183.16603012193906 -201.13059878551266) rotate(502.19856801763257)"><path class="b-outline" fill="#A5ABB6" stroke="none" d="M 25 0.5 L 58.68244164265772 0.5 L 58.68244164265772 -0.5 L 25 -0.5 Z M 84.69025414265772 0.5 L 118.37269578531544 0.5 L 118.37269578531544 3.5 L 125.37269578531544 0 L 118.37269578531544 -3.5 L 118.37269578531544 -0.5 L 84.69025414265772 -0.5 Z"/><text text-anchor="middle" pointer-events="none" font-size="8px" fill="#000000" x="71.68634789265772" y="3" transform="rotate(180 71.68634789265772 0)" font-family="Helvetica Neue, Helvetica, Arial, sans-serif">IS_IN</text></g><g class="relationship" transform="translate(-282.8653527007929 7.535199608921586) rotate(288.5261468773399)"><path class="b-outline" fill="#A5ABB6" stroke="none" d="M 25 0.5 L 55.9056605649789 0.5 L 55.9056605649789 -0.5 L 25 -0.5 Z M 81.9134730649789 0.5 L 112.8191336299578 0.5 L 112.8191336299578 3.5 L 119.8191336299578 0 L 112.8191336299578 -3.5 L 112.8191336299578 -0.5 L 81.9134730649789 -0.5 Z"/><text text-anchor="middle" pointer-events="none" font-size="8px" fill="#000000" x="68.9095668149789" y="3" font-family="Helvetica Neue, Helvetica, Arial, sans-serif">IS_IN</text></g><g class="relationship" transform="translate(54.17370454979359 186.22893402780971) rotate(342.17753567813156)"><path class="b-outline" fill="#A5ABB6" stroke="none" d="M 25 0.5 L 56.65437058437513 0.5 L 56.65437058437513 -0.5 L 25 -0.5 Z M 82.66218308437513 0.5 L 114.31655366875026 0.5 L 114.31655366875026 3.5 L 121.31655366875026 0 L 114.31655366875026 -3.5 L 114.31655366875026 -0.5 L 82.66218308437513 -0.5 Z"/><text text-anchor="middle" pointer-events="none" font-size="8px" fill="#000000" x="69.65827683437513" y="3" font-family="Helvetica Neue, Helvetica, Arial, sans-serif">IS_IN</text></g><g class="relationship" transform="translate(39.2762034498555 -225.38315022000725) rotate(517.1392984661893)"><path class="b-outline" fill="#A5ABB6" stroke="none" d="M 25 0.5 L 40.963156216968386 0.5 L 40.963156216968386 -0.5 L 25 -0.5 Z M 95.71315621696839 0.5 L 111.67631243393677 0.5 L 111.67631243393677 3.5 L 118.67631243393677 0 L 111.67631243393677 -3.5 L 111.67631243393677 -0.5 L 95.71315621696839 -0.5 Z"/><text text-anchor="middle" pointer-events="none" font-size="8px" fill="#000000" x="68.33815621696839" y="3" transform="rotate(180 68.33815621696839 0)" font-family="Helvetica Neue, Helvetica, Arial, sans-serif">STUDIES_AT</text></g><g class="relationship" transform="translate(39.2762034498555 -225.38315022000725) rotate(369.5672501497912)"><path class="b-outline" fill="#A5ABB6" stroke="none" d="M 25 0.5 L 47.71360140904835 0.5 L 47.71360140904835 -0.5 L 25 -0.5 Z M 91.20578890904835 0.5 L 113.9193903180967 0.5 L 113.9193903180967 3.5 L 120.9193903180967 0 L 113.9193903180967 -3.5 L 113.9193903180967 -0.5 L 91.20578890904835 -0.5 Z"/><text text-anchor="middle" pointer-events="none" font-size="8px" fill="#000000" x="69.45969515904835" y="3" font-family="Helvetica Neue, Helvetica, Arial, sans-serif">STAYS_IN</text></g><g class="relationship" transform="translate(174.64987213039737 -3.857941486789708) rotate(442.62059770938816)"><path class="b-outline" fill="#A5ABB6" stroke="none" d="M 25 0.5 L 45.422822704274196 0.5 L 45.422822704274196 -0.5 L 25 -0.5 Z M 94.0946977042742 0.5 L 114.51752040854839 0.5 L 114.51752040854839 3.5 L 121.51752040854839 0 L 114.51752040854839 -3.5 L 114.51752040854839 -0.5 L 94.0946977042742 -0.5 Z"/><text text-anchor="middle" pointer-events="none" font-size="8px" fill="#000000" x="69.7587602042742" y="3" font-family="Helvetica Neue, Helvetica, Arial, sans-serif">WORKS_IN</text></g><g class="relationship" transform="translate(174.64987213039737 -3.857941486789708) rotate(223.61868715373112)"><path class="b-outline" fill="#A5ABB6" stroke="none" d="M 25 0.5 L 48.343183879298365 0.5 L 48.343183879298365 -0.5 L 25 -0.5 Z M 97.01505887929837 0.5 L 120.35824275859673 0.5 L 120.35824275859673 3.5 L 127.35824275859673 0 L 120.35824275859673 -3.5 L 120.35824275859673 -0.5 L 97.01505887929837 -0.5 Z"/><text text-anchor="middle" pointer-events="none" font-size="8px" fill="#000000" x="72.67912137929837" y="3" transform="rotate(180 72.67912137929837 0)" font-family="Helvetica Neue, Helvetica, Arial, sans-serif">WORKS_IN</text></g></g><g class="layer nodes"><g class="node" aria-label="graph-node0" transform="translate(-40.730068942437754,-11.231722922908034)"><circle class="b-outline" cx="0" cy="0" r="25" fill="#C990C0" stroke="#b261a5" stroke-width="2px"/><text class="caption" text-anchor="middle" pointer-events="none" x="0" y="5" font-size="10px" fill="#FFFFFF" font-family="Helvetica Neue, Helvetica, Arial, sans-serif"> Harvard</text></g><g class="node" aria-label="graph-node1" transform="translate(-93.11463408755208,-169.5660480849271)"><circle class="b-outline" cx="0" cy="0" r="25" fill="#C990C0" stroke="#b261a5" stroke-width="2px"/><text class="caption" text-anchor="middle" pointer-events="none" x="0" y="0" font-size="10px" fill="#FFFFFF" font-family="Helvetica Neue, Helvetica, Arial, sans-serif"> Charles</text><text class="caption" text-anchor="middle" pointer-events="none" x="0" y="10" font-size="10px" fill="#FFFFFF" font-family="Helvetica Neue, Helvetica, Arial, sans-serif"> Univer…</text></g><g class="node" aria-label="graph-node2" transform="translate(174.64987213039737,-3.857941486789708)"><circle class="b-outline" cx="0" cy="0" r="25" fill="#F16667" stroke="#eb2728" stroke-width="2px"/><text class="caption" text-anchor="middle" pointer-events="none" x="0" y="5" font-size="10px" fill="#FFFFFF" font-family="Helvetica Neue, Helvetica, Arial, sans-serif"> Marcela</text></g><g class="node" aria-label="graph-node3" transform="translate(39.2762034498555,-225.38315022000725)"><circle class="b-outline" cx="0" cy="0" r="25" fill="#D9C8AE" stroke="#c0a378" stroke-width="2px"/><text class="caption" text-anchor="middle" pointer-events="none" x="0" y="5" font-size="10px" fill="#2A2C34" font-family="Helvetica Neue, Helvetica, Arial, sans-serif"> David</text></g><g class="node" aria-label="graph-node8" transform="translate(64.35059430905821,-108.96314330182138)"><circle class="b-outline" cx="0" cy="0" r="25" fill="#F79767" stroke="#f36924" stroke-width="2px"/><text class="caption" text-anchor="middle" pointer-events="none" x="0" y="5" font-size="10px" fill="#FFFFFF" font-family="Helvetica Neue, Helvetica, Arial, sans-serif"> Strahov</text></g><g class="node" aria-label="graph-node10" transform="translate(-236.8508991598243,-129.77922618333676)"><circle class="b-outline" cx="0" cy="0" r="25" fill="#F79767" stroke="#f36924" stroke-width="2px"/><text class="caption" text-anchor="middle" pointer-events="none" x="0" y="0" font-size="10px" fill="#FFFFFF" font-family="Helvetica Neue, Helvetica, Arial, sans-serif"> 17.</text><text class="caption" text-anchor="middle" pointer-events="none" x="0" y="10" font-size="10px" fill="#FFFFFF" font-family="Helvetica Neue, Helvetica, Arial, sans-serif"> Listop…</text></g><g class="node" aria-label="graph-node12" transform="translate(193.46844833166566,141.44603291317793)"><circle class="b-outline" cx="0" cy="0" r="25" fill="#F79767" stroke="#f36924" stroke-width="2px"/><text class="caption" text-anchor="middle" pointer-events="none" x="0" y="5" font-size="10px" fill="#FFFFFF" font-family="Helvetica Neue, Helvetica, Arial, sans-serif"> Cambrid…</text></g><g class="node" aria-label="graph-node13" transform="translate(183.16603012193906,-201.13059878551266)"><circle class="b-outline" cx="0" cy="0" r="25" fill="#57C7E3" stroke="#23b3d7" stroke-width="2px"/><text class="caption" text-anchor="middle" pointer-events="none" x="0" y="5" font-size="10px" fill="#2A2C34" font-family="Helvetica Neue, Helvetica, Arial, sans-serif"> 0</text></g><g class="node" aria-label="graph-node14" transform="translate(-282.8653527007929,7.535199608921586)"><circle class="b-outline" cx="0" cy="0" r="25" fill="#57C7E3" stroke="#23b3d7" stroke-width="2px"/><text class="caption" text-anchor="middle" pointer-events="none" x="0" y="5" font-size="10px" fill="#2A2C34" font-family="Helvetica Neue, Helvetica, Arial, sans-serif"> 100</text></g><g class="node" aria-label="graph-node15" transform="translate(54.17370454979359,186.22893402780971)"><circle class="b-outline" cx="0" cy="0" r="25" fill="#57C7E3" stroke="#23b3d7" stroke-width="2px"/><text class="caption" text-anchor="middle" pointer-events="none" x="0" y="5" font-size="10px" fill="#2A2C34" font-family="Helvetica Neue, Helvetica, Arial, sans-serif"> 42</text></g><g class="node" aria-label="graph-node17" transform="translate(146.53536535447216,277.5957585682594)"><circle class="b-outline" cx="0" cy="0" r="25" fill="#C990C0" stroke="#b261a5" stroke-width="2px"/><text class="caption" text-anchor="middle" pointer-events="none" x="0" y="5" font-size="10px" fill="#FFFFFF" font-family="Helvetica Neue, Helvetica, Arial, sans-serif"> Cambrid…</text></g></g></svg>