<?xml version="1.0" encoding="UTF-8"?>
<!DOCTYPE svg
PUBLIC "-//W3C//DTD SVG 1.1//EN"
       "http://www.w3.org/Graphics/SVG/1.1/DTD/svg11.dtd">
<svg viewBox="97 21 956 567" width="859px" height="546px" xmlns="http://www.w3.org/2000/svg" version="1.1">
   <line x1="534" y1="146" x2="544" y2="146" style="stroke:#0b0;stroke-width:1;"/>
   <line x1="787" y1="95" x2="797" y2="95" style="stroke:#0b0;stroke-width:1;"/>
   <line x1="544" y1="146" x2="787" y2="95" style="stroke:#0b0;stroke-width:1;"/>
   <line x1="541.5" y1="146" x2="537.96446609407" y2="149.53553390593" style="stroke:#0b0;stroke-width:2;"/>
   <line x1="541.5" y1="146" x2="537.96446609407" y2="142.46446609407" style="stroke:#0b0;stroke-width:2;"/>
   <line x1="792" y1="95" x2="788.46446609407" y2="98.535533905933" style="stroke:#0b0;stroke-width:2;"/>
   <line x1="792" y1="95" x2="788.46446609407" y2="91.464466094067" style="stroke:#0b0;stroke-width:2;"/>
   <line x1="534" y1="362" x2="544" y2="362" style="stroke:#c00;stroke-width:1;"/>
   <line x1="544" y1="66" x2="534" y2="66" style="stroke:#c00;stroke-width:1;"/>
   <line x1="544" y1="362" x2="544" y2="66" style="stroke:#c00;stroke-width:1;"/>
   <line x1="541.5" y1="362" x2="537.96446609407" y2="365.53553390593" style="stroke:#c00;stroke-width:2;"/>
   <line x1="541.5" y1="362" x2="537.96446609407" y2="358.46446609407" style="stroke:#c00;stroke-width:2;"/>
   <line x1="539" y1="66" x2="542.53553390593" y2="69.535533905933" style="stroke:#c00;stroke-width:2;"/>
   <line x1="539" y1="66" x2="542.53553390593" y2="62.464466094067" style="stroke:#c00;stroke-width:2;"/>
   <line x1="534" y1="362" x2="544" y2="362" style="stroke:#bbb;stroke-width:1;"/>
   <line x1="544" y1="66" x2="534" y2="66" style="stroke:#bbb;stroke-width:1;"/>
   <line x1="544" y1="362" x2="544" y2="66" style="stroke:#bbb;stroke-width:1;"/>
   <line x1="541.5" y1="362" x2="537.96446609407" y2="365.53553390593" style="stroke:#bbb;stroke-width:2;"/>
   <line x1="541.5" y1="362" x2="537.96446609407" y2="358.46446609407" style="stroke:#bbb;stroke-width:2;"/>
   <line x1="539" y1="66" x2="542.53553390593" y2="69.535533905933" style="stroke:#bbb;stroke-width:2;"/>
   <line x1="539" y1="66" x2="542.53553390593" y2="62.464466094067" style="stroke:#bbb;stroke-width:2;"/>
   <line x1="223" y1="399" x2="233" y2="399" style="stroke:#0b0;stroke-width:1;"/>
   <line x1="386" y1="502" x2="396" y2="502" style="stroke:#0b0;stroke-width:1;"/>
   <line x1="233" y1="399" x2="386" y2="502" style="stroke:#0b0;stroke-width:1;"/>
   <line x1="230.5" y1="399" x2="226.96446609407" y2="402.53553390593" style="stroke:#0b0;stroke-width:2;"/>
   <line x1="230.5" y1="399" x2="226.96446609407" y2="395.46446609407" style="stroke:#0b0;stroke-width:2;"/>
   <line x1="391" y1="502" x2="387.46446609407" y2="505.53553390593" style="stroke:#0b0;stroke-width:2;"/>
   <line x1="391" y1="502" x2="387.46446609407" y2="498.46446609407" style="stroke:#0b0;stroke-width:2;"/>
   <line x1="730" y1="542" x2="720" y2="542" style="stroke:#0bf;stroke-width:1;"/>
   <line x1="490" y1="502" x2="480" y2="502" style="stroke:#0bf;stroke-width:1;"/>
   <line x1="720" y1="542" x2="490" y2="502" style="stroke:#0bf;stroke-width:1;"/>
   <line x1="722.5" y1="542" x2="726.03553390593" y2="545.53553390593" style="stroke:#0bf;stroke-width:2;"/>
   <line x1="722.5" y1="542" x2="726.03553390593" y2="538.46446609407" style="stroke:#0bf;stroke-width:2;"/>
   <line x1="485" y1="502" x2="488.53553390593" y2="505.53553390593" style="stroke:#0bf;stroke-width:2;"/>
   <line x1="485" y1="502" x2="488.53553390593" y2="498.46446609407" style="stroke:#0bf;stroke-width:2;"/>
   <line x1="823" y1="376" x2="813" y2="376" style="stroke:#333;stroke-width:1;"/>
   <line x1="544" y1="262" x2="534" y2="262" style="stroke:#333;stroke-width:1;"/>
   <line x1="813" y1="376" x2="544" y2="262" style="stroke:#333;stroke-width:1;"/>
   <line x1="815.5" y1="376" x2="819.03553390593" y2="379.53553390593" style="stroke:#333;stroke-width:2;"/>
   <line x1="815.5" y1="376" x2="819.03553390593" y2="372.46446609407" style="stroke:#333;stroke-width:2;"/>
   <line x1="539" y1="262" x2="542.53553390593" y2="265.53553390593" style="stroke:#333;stroke-width:2;"/>
   <line x1="539" y1="262" x2="542.53553390593" y2="258.46446609407" style="stroke:#333;stroke-width:2;"/>
   <line x1="823" y1="396" x2="813" y2="396" style="stroke:#cb0;stroke-width:1;"/>
   <line x1="490" y1="502" x2="480" y2="502" style="stroke:#cb0;stroke-width:1;"/>
   <line x1="813" y1="396" x2="490" y2="502" style="stroke:#cb0;stroke-width:1;"/>
   <line x1="815.5" y1="396" x2="819.03553390593" y2="399.53553390593" style="stroke:#cb0;stroke-width:2;"/>
   <line x1="815.5" y1="396" x2="819.03553390593" y2="392.46446609407" style="stroke:#cb0;stroke-width:2;"/>
   <line x1="485" y1="502" x2="488.53553390593" y2="505.53553390593" style="stroke:#cb0;stroke-width:2;"/>
   <line x1="485" y1="502" x2="488.53553390593" y2="498.46446609407" style="stroke:#cb0;stroke-width:2;"/>
   <line x1="805" y1="256" x2="795" y2="256" style="stroke:#0b0;stroke-width:1;"/>
   <line x1="813" y1="356" x2="823" y2="356" style="stroke:#0b0;stroke-width:1;"/>
   <line x1="795" y1="256" x2="813" y2="356" style="stroke:#0b0;stroke-width:1;"/>
   <line x1="797.5" y1="256" x2="801.03553390593" y2="259.53553390593" style="stroke:#0b0;stroke-width:2;"/>
   <line x1="797.5" y1="256" x2="801.03553390593" y2="252.46446609407" style="stroke:#0b0;stroke-width:2;"/>
   <line x1="818" y1="356" x2="814.46446609407" y2="359.53553390593" style="stroke:#0b0;stroke-width:2;"/>
   <line x1="818" y1="356" x2="814.46446609407" y2="352.46446609407" style="stroke:#0b0;stroke-width:2;"/>
   <line x1="805" y1="276" x2="795" y2="276" style="stroke:#333;stroke-width:1;"/>
   <line x1="787" y1="95" x2="797" y2="95" style="stroke:#333;stroke-width:1;"/>
   <line x1="795" y1="276" x2="787" y2="95" style="stroke:#333;stroke-width:1;"/>
   <line x1="797.5" y1="276" x2="801.03553390593" y2="279.53553390593" style="stroke:#333;stroke-width:2;"/>
   <line x1="797.5" y1="276" x2="801.03553390593" y2="272.46446609407" style="stroke:#333;stroke-width:2;"/>
   <line x1="792" y1="95" x2="788.46446609407" y2="98.535533905933" style="stroke:#333;stroke-width:2;"/>
   <line x1="792" y1="95" x2="788.46446609407" y2="91.464466094067" style="stroke:#333;stroke-width:2;"/>
   <line x1="112" y1="126" x2="102" y2="126" style="stroke:#0b0;stroke-width:1;"/>
   <line x1="110" y1="359" x2="120" y2="359" style="stroke:#0b0;stroke-width:1;"/>
   <line x1="102" y1="126" x2="110" y2="359" style="stroke:#0b0;stroke-width:1;"/>
   <line x1="104.5" y1="126" x2="108.03553390593" y2="129.53553390593" style="stroke:#0b0;stroke-width:2;"/>
   <line x1="104.5" y1="126" x2="108.03553390593" y2="122.46446609407" style="stroke:#0b0;stroke-width:2;"/>
   <line x1="115" y1="359" x2="111.46446609407" y2="362.53553390593" style="stroke:#0b0;stroke-width:2;"/>
   <line x1="115" y1="359" x2="111.46446609407" y2="355.46446609407" style="stroke:#0b0;stroke-width:2;"/>
   <line x1="213" y1="146" x2="223" y2="146" style="stroke:#0b0;stroke-width:1;"/>
   <line x1="421" y1="66" x2="431" y2="66" style="stroke:#0b0;stroke-width:1;"/>
   <line x1="223" y1="146" x2="421" y2="66" style="stroke:#0b0;stroke-width:1;"/>
   <line x1="220.5" y1="146" x2="216.96446609407" y2="149.53553390593" style="stroke:#0b0;stroke-width:2;"/>
   <line x1="220.5" y1="146" x2="216.96446609407" y2="142.46446609407" style="stroke:#0b0;stroke-width:2;"/>
   <line x1="426" y1="66" x2="422.46446609407" y2="69.535533905933" style="stroke:#0b0;stroke-width:2;"/>
   <line x1="426" y1="66" x2="422.46446609407" y2="62.464466094067" style="stroke:#0b0;stroke-width:2;"/>
   <line x1="213" y1="146" x2="223" y2="146" style="stroke:#cb0;stroke-width:1;"/>
   <line x1="421" y1="66" x2="431" y2="66" style="stroke:#cb0;stroke-width:1;"/>
   <line x1="223" y1="146" x2="421" y2="66" style="stroke:#cb0;stroke-width:1;"/>
   <line x1="220.5" y1="146" x2="216.96446609407" y2="149.53553390593" style="stroke:#cb0;stroke-width:2;"/>
   <line x1="220.5" y1="146" x2="216.96446609407" y2="142.46446609407" style="stroke:#cb0;stroke-width:2;"/>
   <line x1="426" y1="66" x2="422.46446609407" y2="69.535533905933" style="stroke:#cb0;stroke-width:2;"/>
   <line x1="426" y1="66" x2="422.46446609407" y2="62.464466094067" style="stroke:#cb0;stroke-width:2;"/>
   <line x1="213" y1="146" x2="223" y2="146" style="stroke:#cb0;stroke-width:1;"/>
   <line x1="421" y1="66" x2="431" y2="66" style="stroke:#cb0;stroke-width:1;"/>
   <line x1="223" y1="146" x2="421" y2="66" style="stroke:#cb0;stroke-width:1;"/>
   <line x1="220.5" y1="146" x2="216.96446609407" y2="149.53553390593" style="stroke:#cb0;stroke-width:2;"/>
   <line x1="220.5" y1="146" x2="216.96446609407" y2="142.46446609407" style="stroke:#cb0;stroke-width:2;"/>
   <line x1="426" y1="66" x2="422.46446609407" y2="69.535533905933" style="stroke:#cb0;stroke-width:2;"/>
   <line x1="426" y1="66" x2="422.46446609407" y2="62.464466094067" style="stroke:#cb0;stroke-width:2;"/>
   <rect width="103" height="20" x="431" y="36" style="fill:#007;stroke:black;"/>
   <text width="103" height="20" x="436" y="50" style="fill:#fff;" font-family="Arial" font-size="16px"> dormitory</text>
   <rect width="103" height="20" x="431" y="56" style="fill:#aea;stroke:black;"/>
   <text width="103" height="20" x="436" y="70" style="fill:black;" font-family="Arial" font-size="16px">ID</text>
   <rect width="103" height="20" x="431" y="76" style="fill:none;stroke:black;"/>
   <text width="103" height="20" x="436" y="90" style="fill:black;" font-family="Arial" font-size="16px">Address</text>
   <rect width="103" height="20" x="431" y="96" style="fill:none;stroke:black;"/>
   <text width="103" height="20" x="436" y="110" style="fill:black;" font-family="Arial" font-size="16px">Name</text>
   <rect width="103" height="20" x="431" y="116" style="fill:none;stroke:black;"/>
   <text width="103" height="20" x="436" y="130" style="fill:black;" font-family="Arial" font-size="16px">HasBedBugs</text>
   <rect width="103" height="20" x="431" y="136" style="fill:none;stroke:black;"/>
   <text width="103" height="20" x="436" y="150" style="fill:black;" font-family="Arial" font-size="16px">ID_University</text>
   <rect width="101" height="20" x="433" y="232" style="fill:#007;stroke:black;"/>
   <text width="101" height="20" x="438" y="246" style="fill:#fff;" font-family="Arial" font-size="16px"> dorm_room</text>
   <rect width="101" height="20" x="433" y="252" style="fill:#aea;stroke:black;"/>
   <text width="101" height="20" x="438" y="266" style="fill:black;" font-family="Arial" font-size="16px">ID</text>
   <rect width="101" height="20" x="433" y="272" style="fill:none;stroke:black;"/>
   <text width="101" height="20" x="438" y="286" style="fill:black;" font-family="Arial" font-size="16px">Floor</text>
   <rect width="101" height="20" x="433" y="292" style="fill:none;stroke:black;"/>
   <text width="101" height="20" x="438" y="306" style="fill:black;" font-family="Arial" font-size="16px">Number</text>
   <rect width="101" height="20" x="433" y="312" style="fill:none;stroke:black;"/>
   <text width="101" height="20" x="438" y="326" style="fill:black;" font-family="Arial" font-size="16px">Capacity</text>
   <rect width="101" height="20" x="433" y="332" style="fill:none;stroke:black;"/>
   <text width="101" height="20" x="438" y="346" style="fill:black;" font-family="Arial" font-size="16px">HasToilet</text>
   <rect width="101" height="20" x="433" y="352" style="fill:none;stroke:black;"/>
   <text width="101" height="20" x="438" y="366" style="fill:black;" font-family="Arial" font-size="16px">ID_Dormitory</text>
   <rect width="103" height="20" x="120" y="329" style="fill:#007;stroke:black;"/>
   <text width="103" height="20" x="125" y="343" style="fill:#fff;" font-family="Arial" font-size="16px"> janitor</text>
   <rect width="103" height="20" x="120" y="349" style="fill:#aea;stroke:black;"/>
   <text width="103" height="20" x="125" y="363" style="fill:black;" font-family="Arial" font-size="16px">ID</text>
   <rect width="103" height="20" x="120" y="369" style="fill:none;stroke:black;"/>
   <text width="103" height="20" x="125" y="383" style="fill:black;" font-family="Arial" font-size="16px">Owns_Broom</text>
   <rect width="103" height="20" x="120" y="389" style="fill:none;stroke:black;"/>
   <text width="103" height="20" x="125" y="403" style="fill:black;" font-family="Arial" font-size="16px">ID_Person</text>
   <rect width="102" height="20" x="730" y="472" style="fill:#007;stroke:black;"/>
   <text width="102" height="20" x="735" y="486" style="fill:#fff;" font-family="Arial" font-size="16px"> middle_name</text>
   <rect width="102" height="20" x="730" y="492" style="fill:#aea;stroke:black;"/>
   <text width="102" height="20" x="735" y="506" style="fill:black;" font-family="Arial" font-size="16px">ID</text>
   <rect width="102" height="20" x="730" y="512" style="fill:none;stroke:black;"/>
   <text width="102" height="20" x="735" y="526" style="fill:black;" font-family="Arial" font-size="16px">Name</text>
   <rect width="102" height="20" x="730" y="532" style="fill:none;stroke:black;"/>
   <text width="102" height="20" x="735" y="546" style="fill:black;" font-family="Arial" font-size="16px">ID_Person</text>
   <rect width="84" height="20" x="396" y="472" style="fill:#007;stroke:black;"/>
   <text width="84" height="20" x="401" y="486" style="fill:#fff;" font-family="Arial" font-size="16px"> person</text>
   <rect width="84" height="20" x="396" y="492" style="fill:#aea;stroke:black;"/>
   <text width="84" height="20" x="401" y="506" style="fill:black;" font-family="Arial" font-size="16px">ID</text>
   <rect width="84" height="20" x="396" y="512" style="fill:none;stroke:black;"/>
   <text width="84" height="20" x="401" y="526" style="fill:black;" font-family="Arial" font-size="16px">FirstName</text>
   <rect width="84" height="20" x="396" y="532" style="fill:none;stroke:black;"/>
   <text width="84" height="20" x="401" y="546" style="fill:black;" font-family="Arial" font-size="16px">LastName</text>
   <rect width="118" height="20" x="823" y="326" style="fill:#007;stroke:black;"/>
   <text width="118" height="20" x="828" y="340" style="fill:#fff;" font-family="Arial" font-size="16px"> student</text>
   <rect width="118" height="20" x="823" y="346" style="fill:#aea;stroke:black;"/>
   <text width="118" height="20" x="828" y="360" style="fill:black;" font-family="Arial" font-size="16px">ID</text>
   <rect width="118" height="20" x="823" y="366" style="fill:none;stroke:black;"/>
   <text width="118" height="20" x="828" y="380" style="fill:black;" font-family="Arial" font-size="16px">ID_Dorm_Room</text>
   <rect width="118" height="20" x="823" y="386" style="fill:none;stroke:black;"/>
   <text width="118" height="20" x="828" y="400" style="fill:black;" font-family="Arial" font-size="16px">ID_Person</text>
   <rect width="101" height="20" x="805" y="206" style="fill:#007;stroke:black;"/>
   <text width="101" height="20" x="810" y="220" style="fill:#fff;" font-family="Arial" font-size="16px"> studies_at</text>
   <rect width="101" height="20" x="805" y="226" style="fill:#aea;stroke:black;"/>
   <text width="101" height="20" x="810" y="240" style="fill:black;" font-family="Arial" font-size="16px">ID</text>
   <rect width="101" height="20" x="805" y="246" style="fill:none;stroke:black;"/>
   <text width="101" height="20" x="810" y="260" style="fill:black;" font-family="Arial" font-size="16px">ID_Student</text>
   <rect width="101" height="20" x="805" y="266" style="fill:none;stroke:black;"/>
   <text width="101" height="20" x="810" y="280" style="fill:black;" font-family="Arial" font-size="16px">ID_University</text>
   <rect width="80" height="20" x="797" y="65" style="fill:#007;stroke:black;"/>
   <text width="80" height="20" x="802" y="79" style="fill:#fff;" font-family="Arial" font-size="16px"> university</text>
   <rect width="80" height="20" x="797" y="85" style="fill:#aea;stroke:black;"/>
   <text width="80" height="20" x="802" y="99" style="fill:black;" font-family="Arial" font-size="16px">ID</text>
   <rect width="80" height="20" x="797" y="105" style="fill:none;stroke:black;"/>
   <text width="80" height="20" x="802" y="119" style="fill:black;" font-family="Arial" font-size="16px">Name</text>
   <rect width="80" height="20" x="797" y="125" style="fill:none;stroke:black;"/>
   <text width="80" height="20" x="802" y="139" style="fill:black;" font-family="Arial" font-size="16px">WebPage</text>
   <rect width="101" height="20" x="112" y="76" style="fill:#007;stroke:black;"/>
   <text width="101" height="20" x="117" y="90" style="fill:#fff;" font-family="Arial" font-size="16px"> works_in</text>
   <rect width="101" height="20" x="112" y="96" style="fill:#aea;stroke:black;"/>
   <text width="101" height="20" x="117" y="110" style="fill:black;" font-family="Arial" font-size="16px">ID</text>
   <rect width="101" height="20" x="112" y="116" style="fill:none;stroke:black;"/>
   <text width="101" height="20" x="117" y="130" style="fill:black;" font-family="Arial" font-size="16px">ID_Janitor</text>
   <rect width="101" height="20" x="112" y="136" style="fill:none;stroke:black;"/>
   <text width="101" height="20" x="117" y="150" style="fill:black;" font-family="Arial" font-size="16px">ID_Dormitory</text>
</svg>
