<?xml version="1.0" encoding="UTF-8"?>
<!DOCTYPE svg
PUBLIC "-//W3C//DTD SVG 1.1//EN"
       "http://www.w3.org/Graphics/SVG/1.1/DTD/svg11.dtd">
<svg viewBox="84 26 1157 591" width="1073px" height="565px" xmlns="http://www.w3.org/2000/svg" version="1.1">
   <line x1="607" y1="151" x2="617" y2="151" style="stroke:#0b0;stroke-width:1;"/>
   <line x1="824" y1="75" x2="834" y2="75" style="stroke:#0b0;stroke-width:1;"/>
   <line x1="617" y1="151" x2="824" y2="75" style="stroke:#0b0;stroke-width:1;"/>
   <line x1="614.5" y1="151" x2="610.96446609407" y2="154.53553390593" style="stroke:#0b0;stroke-width:2;"/>
   <line x1="614.5" y1="151" x2="610.96446609407" y2="147.46446609407" style="stroke:#0b0;stroke-width:2;"/>
   <line x1="829" y1="75" x2="825.46446609407" y2="78.535533905933" style="stroke:#0b0;stroke-width:2;"/>
   <line x1="829" y1="75" x2="825.46446609407" y2="71.464466094067" style="stroke:#0b0;stroke-width:2;"/>
   <line x1="505" y1="375" x2="495" y2="375" style="stroke:#0bf;stroke-width:1;"/>
   <line x1="488" y1="71" x2="498" y2="71" style="stroke:#0bf;stroke-width:1;"/>
   <line x1="495" y1="375" x2="488" y2="71" style="stroke:#0bf;stroke-width:1;"/>
   <line x1="497.5" y1="375" x2="501.03553390593" y2="378.53553390593" style="stroke:#0bf;stroke-width:2;"/>
   <line x1="497.5" y1="375" x2="501.03553390593" y2="371.46446609407" style="stroke:#0bf;stroke-width:2;"/>
   <line x1="493" y1="71" x2="489.46446609407" y2="74.535533905933" style="stroke:#0bf;stroke-width:2;"/>
   <line x1="493" y1="71" x2="489.46446609407" y2="67.464466094067" style="stroke:#0bf;stroke-width:2;"/>
   <line x1="220" y1="366" x2="230" y2="366" style="stroke:#b0b;stroke-width:1;"/>
   <line x1="494" y1="486" x2="504" y2="486" style="stroke:#b0b;stroke-width:1;"/>
   <line x1="230" y1="366" x2="494" y2="486" style="stroke:#b0b;stroke-width:1;"/>
   <line x1="227.5" y1="366" x2="223.96446609407" y2="369.53553390593" style="stroke:#b0b;stroke-width:2;"/>
   <line x1="227.5" y1="366" x2="223.96446609407" y2="362.46446609407" style="stroke:#b0b;stroke-width:2;"/>
   <line x1="499" y1="486" x2="495.46446609407" y2="489.53553390593" style="stroke:#b0b;stroke-width:2;"/>
   <line x1="499" y1="486" x2="495.46446609407" y2="482.46446609407" style="stroke:#b0b;stroke-width:2;"/>
   <line x1="236" y1="514" x2="246" y2="514" style="stroke:#cb0;stroke-width:1;"/>
   <line x1="494" y1="486" x2="504" y2="486" style="stroke:#cb0;stroke-width:1;"/>
   <line x1="246" y1="514" x2="494" y2="486" style="stroke:#cb0;stroke-width:1;"/>
   <line x1="243.5" y1="514" x2="239.96446609407" y2="517.53553390593" style="stroke:#cb0;stroke-width:2;"/>
   <line x1="243.5" y1="514" x2="239.96446609407" y2="510.46446609407" style="stroke:#cb0;stroke-width:2;"/>
   <line x1="499" y1="486" x2="495.46446609407" y2="489.53553390593" style="stroke:#cb0;stroke-width:2;"/>
   <line x1="499" y1="486" x2="495.46446609407" y2="482.46446609407" style="stroke:#cb0;stroke-width:2;"/>
   <line x1="590" y1="486" x2="600" y2="486" style="stroke:#bbb;stroke-width:1;"/>
   <line x1="823" y1="310" x2="833" y2="310" style="stroke:#bbb;stroke-width:1;"/>
   <line x1="600" y1="486" x2="823" y2="310" style="stroke:#bbb;stroke-width:1;"/>
   <line x1="597.5" y1="486" x2="593.96446609407" y2="489.53553390593" style="stroke:#bbb;stroke-width:2;"/>
   <line x1="597.5" y1="486" x2="593.96446609407" y2="482.46446609407" style="stroke:#bbb;stroke-width:2;"/>
   <line x1="828" y1="310" x2="824.46446609407" y2="313.53553390593" style="stroke:#bbb;stroke-width:2;"/>
   <line x1="828" y1="310" x2="824.46446609407" y2="306.46446609407" style="stroke:#bbb;stroke-width:2;"/>
   <line x1="917" y1="473" x2="907" y2="473" style="stroke:#b0b;stroke-width:1;"/>
   <line x1="634" y1="275" x2="624" y2="275" style="stroke:#b0b;stroke-width:1;"/>
   <line x1="907" y1="473" x2="634" y2="275" style="stroke:#b0b;stroke-width:1;"/>
   <line x1="909.5" y1="473" x2="913.03553390593" y2="476.53553390593" style="stroke:#b0b;stroke-width:2;"/>
   <line x1="909.5" y1="473" x2="913.03553390593" y2="469.46446609407" style="stroke:#b0b;stroke-width:2;"/>
   <line x1="629" y1="275" x2="632.53553390593" y2="278.53553390593" style="stroke:#b0b;stroke-width:2;"/>
   <line x1="629" y1="275" x2="632.53553390593" y2="271.46446609407" style="stroke:#b0b;stroke-width:2;"/>
   <line x1="917" y1="493" x2="907" y2="493" style="stroke:#0bf;stroke-width:1;"/>
   <line x1="600" y1="486" x2="590" y2="486" style="stroke:#0bf;stroke-width:1;"/>
   <line x1="907" y1="493" x2="600" y2="486" style="stroke:#0bf;stroke-width:1;"/>
   <line x1="909.5" y1="493" x2="913.03553390593" y2="496.53553390593" style="stroke:#0bf;stroke-width:2;"/>
   <line x1="909.5" y1="493" x2="913.03553390593" y2="489.46446609407" style="stroke:#0bf;stroke-width:2;"/>
   <line x1="595" y1="486" x2="598.53553390593" y2="489.53553390593" style="stroke:#0bf;stroke-width:2;"/>
   <line x1="595" y1="486" x2="598.53553390593" y2="482.46446609407" style="stroke:#0bf;stroke-width:2;"/>
   <line x1="833" y1="330" x2="823" y2="330" style="stroke:#cb0;stroke-width:1;"/>
   <line x1="824" y1="75" x2="834" y2="75" style="stroke:#cb0;stroke-width:1;"/>
   <line x1="823" y1="330" x2="824" y2="75" style="stroke:#cb0;stroke-width:1;"/>
   <line x1="825.5" y1="330" x2="829.03553390593" y2="333.53553390593" style="stroke:#cb0;stroke-width:2;"/>
   <line x1="825.5" y1="330" x2="829.03553390593" y2="326.46446609407" style="stroke:#cb0;stroke-width:2;"/>
   <line x1="829" y1="75" x2="825.46446609407" y2="78.535533905933" style="stroke:#cb0;stroke-width:2;"/>
   <line x1="829" y1="75" x2="825.46446609407" y2="71.464466094067" style="stroke:#cb0;stroke-width:2;"/>
   <line x1="935" y1="115" x2="945" y2="115" style="stroke:#c00;stroke-width:1;"/>
   <line x1="1051" y1="97" x2="1061" y2="97" style="stroke:#c00;stroke-width:1;"/>
   <line x1="945" y1="115" x2="1051" y2="97" style="stroke:#c00;stroke-width:1;"/>
   <line x1="942.5" y1="115" x2="938.96446609407" y2="118.53553390593" style="stroke:#c00;stroke-width:2;"/>
   <line x1="942.5" y1="115" x2="938.96446609407" y2="111.46446609407" style="stroke:#c00;stroke-width:2;"/>
   <line x1="1056" y1="97" x2="1052.4644660941" y2="100.53553390593" style="stroke:#c00;stroke-width:2;"/>
   <line x1="1056" y1="97" x2="1052.4644660941" y2="93.464466094067" style="stroke:#c00;stroke-width:2;"/>
   <line x1="212" y1="201" x2="222" y2="201" style="stroke:#cb0;stroke-width:1;"/>
   <line x1="488" y1="71" x2="498" y2="71" style="stroke:#cb0;stroke-width:1;"/>
   <line x1="222" y1="201" x2="488" y2="71" style="stroke:#cb0;stroke-width:1;"/>
   <line x1="219.5" y1="201" x2="215.96446609407" y2="204.53553390593" style="stroke:#cb0;stroke-width:2;"/>
   <line x1="219.5" y1="201" x2="215.96446609407" y2="197.46446609407" style="stroke:#cb0;stroke-width:2;"/>
   <line x1="493" y1="71" x2="489.46446609407" y2="74.535533905933" style="stroke:#cb0;stroke-width:2;"/>
   <line x1="493" y1="71" x2="489.46446609407" y2="67.464466094067" style="stroke:#cb0;stroke-width:2;"/>
   <line x1="212" y1="181" x2="222" y2="181" style="stroke:#b0b;stroke-width:1;"/>
   <line x1="494" y1="486" x2="504" y2="486" style="stroke:#b0b;stroke-width:1;"/>
   <line x1="222" y1="181" x2="494" y2="486" style="stroke:#b0b;stroke-width:1;"/>
   <line x1="219.5" y1="181" x2="215.96446609407" y2="184.53553390593" style="stroke:#b0b;stroke-width:2;"/>
   <line x1="219.5" y1="181" x2="215.96446609407" y2="177.46446609407" style="stroke:#b0b;stroke-width:2;"/>
   <line x1="499" y1="486" x2="495.46446609407" y2="489.53553390593" style="stroke:#b0b;stroke-width:2;"/>
   <line x1="499" y1="486" x2="495.46446609407" y2="482.46446609407" style="stroke:#b0b;stroke-width:2;"/>
   <rect width="109" height="20" x="498" y="41" style="fill:#007;stroke:black;"/>
   <text width="109" height="20" x="503" y="55" style="fill:#fff;" font-family="Arial" font-size="16px"> dormitory</text>
   <rect width="109" height="20" x="498" y="61" style="fill:none;stroke:black;"/>
   <text width="109" height="20" x="503" y="75" style="fill:black;" font-family="Arial" font-size="16px">ID</text>
   <rect width="109" height="20" x="498" y="81" style="fill:none;stroke:black;"/>
   <text width="109" height="20" x="503" y="95" style="fill:black;" font-family="Arial" font-size="16px">Address</text>
   <rect width="109" height="20" x="498" y="101" style="fill:none;stroke:black;"/>
   <text width="109" height="20" x="503" y="115" style="fill:black;" font-family="Arial" font-size="16px">Name</text>
   <rect width="109" height="20" x="498" y="121" style="fill:none;stroke:black;"/>
   <text width="109" height="20" x="503" y="135" style="fill:black;" font-family="Arial" font-size="16px">Has bed bugs</text>
   <rect width="109" height="20" x="498" y="141" style="fill:none;stroke:black;"/>
   <text width="109" height="20" x="503" y="155" style="fill:black;" font-family="Arial" font-size="16px">University ID</text>
   <rect width="119" height="20" x="505" y="245" style="fill:#007;stroke:black;"/>
   <text width="119" height="20" x="510" y="259" style="fill:#fff;" font-family="Arial" font-size="16px"> dormitory_room</text>
   <rect width="119" height="20" x="505" y="265" style="fill:none;stroke:black;"/>
   <text width="119" height="20" x="510" y="279" style="fill:black;" font-family="Arial" font-size="16px">ID</text>
   <rect width="119" height="20" x="505" y="285" style="fill:none;stroke:black;"/>
   <text width="119" height="20" x="510" y="299" style="fill:black;" font-family="Arial" font-size="16px">Floor</text>
   <rect width="119" height="20" x="505" y="305" style="fill:none;stroke:black;"/>
   <text width="119" height="20" x="510" y="319" style="fill:black;" font-family="Arial" font-size="16px">Room number</text>
   <rect width="119" height="20" x="505" y="325" style="fill:none;stroke:black;"/>
   <text width="119" height="20" x="510" y="339" style="fill:black;" font-family="Arial" font-size="16px">Capacity</text>
   <rect width="119" height="20" x="505" y="345" style="fill:none;stroke:black;"/>
   <text width="119" height="20" x="510" y="359" style="fill:black;" font-family="Arial" font-size="16px">Has toilet</text>
   <rect width="119" height="20" x="505" y="365" style="fill:none;stroke:black;"/>
   <text width="119" height="20" x="510" y="379" style="fill:black;" font-family="Arial" font-size="16px">Dormitory ID</text>
   <rect width="114" height="20" x="106" y="296" style="fill:#007;stroke:black;"/>
   <text width="114" height="20" x="111" y="310" style="fill:#fff;" font-family="Arial" font-size="16px"> janitor</text>
   <rect width="114" height="20" x="106" y="316" style="fill:#aea;stroke:black;"/>
   <text width="114" height="20" x="111" y="330" style="fill:black;" font-family="Arial" font-size="16px">ID</text>
   <rect width="114" height="20" x="106" y="336" style="fill:none;stroke:black;"/>
   <text width="114" height="20" x="111" y="350" style="fill:black;" font-family="Arial" font-size="16px">Owns a broom</text>
   <rect width="114" height="20" x="106" y="356" style="fill:none;stroke:black;"/>
   <text width="114" height="20" x="111" y="370" style="fill:black;" font-family="Arial" font-size="16px">Person ID</text>
   <rect width="137" height="20" x="99" y="444" style="fill:#007;stroke:black;"/>
   <text width="137" height="20" x="104" y="458" style="fill:#fff;" font-family="Arial" font-size="16px"> middle_name</text>
   <rect width="137" height="20" x="99" y="464" style="fill:#aea;stroke:black;"/>
   <text width="137" height="20" x="104" y="478" style="fill:black;" font-family="Arial" font-size="16px">ID</text>
   <rect width="137" height="20" x="99" y="484" style="fill:none;stroke:black;"/>
   <text width="137" height="20" x="104" y="498" style="fill:black;" font-family="Arial" font-size="16px">One middle name</text>
   <rect width="137" height="20" x="99" y="504" style="fill:none;stroke:black;"/>
   <text width="137" height="20" x="104" y="518" style="fill:black;" font-family="Arial" font-size="16px">Person ID</text>
   <rect width="137" height="20" x="99" y="524" style="fill:none;stroke:black;"/>
   <text width="137" height="20" x="104" y="538" style="fill:black;" font-family="Arial" font-size="16px">Person Position</text>
   <rect width="86" height="20" x="504" y="456" style="fill:#007;stroke:black;"/>
   <text width="86" height="20" x="509" y="470" style="fill:#fff;" font-family="Arial" font-size="16px"> person</text>
   <rect width="86" height="20" x="504" y="476" style="fill:none;stroke:black;"/>
   <text width="86" height="20" x="509" y="490" style="fill:black;" font-family="Arial" font-size="16px">ID</text>
   <rect width="86" height="20" x="504" y="496" style="fill:none;stroke:black;"/>
   <text width="86" height="20" x="509" y="510" style="fill:black;" font-family="Arial" font-size="16px">First name</text>
   <rect width="86" height="20" x="504" y="516" style="fill:none;stroke:black;"/>
   <text width="86" height="20" x="509" y="530" style="fill:black;" font-family="Arial" font-size="16px">Last name</text>
   <rect width="86" height="20" x="504" y="536" style="fill:none;stroke:black;"/>
   <text width="86" height="20" x="509" y="550" style="fill:black;" font-family="Arial" font-size="16px">Person ID</text>
   <rect width="86" height="20" x="504" y="556" style="fill:none;stroke:black;"/>
   <text width="86" height="20" x="509" y="570" style="fill:black;" font-family="Arial" font-size="16px">Position</text>
   <rect width="111" height="20" x="917" y="423" style="fill:#007;stroke:black;"/>
   <text width="111" height="20" x="922" y="437" style="fill:#fff;" font-family="Arial" font-size="16px"> student</text>
   <rect width="111" height="20" x="917" y="443" style="fill:#aea;stroke:black;"/>
   <text width="111" height="20" x="922" y="457" style="fill:black;" font-family="Arial" font-size="16px">ID</text>
   <rect width="111" height="20" x="917" y="463" style="fill:none;stroke:black;"/>
   <text width="111" height="20" x="922" y="477" style="fill:black;" font-family="Arial" font-size="16px">Dorm room ID</text>
   <rect width="111" height="20" x="917" y="483" style="fill:none;stroke:black;"/>
   <text width="111" height="20" x="922" y="497" style="fill:black;" font-family="Arial" font-size="16px">Person ID</text>
   <rect width="101" height="20" x="833" y="260" style="fill:#007;stroke:black;"/>
   <text width="101" height="20" x="838" y="274" style="fill:#fff;" font-family="Arial" font-size="16px"> studies_at</text>
   <rect width="101" height="20" x="833" y="280" style="fill:#aea;stroke:black;"/>
   <text width="101" height="20" x="838" y="294" style="fill:black;" font-family="Arial" font-size="16px">ID</text>
   <rect width="101" height="20" x="833" y="300" style="fill:none;stroke:black;"/>
   <text width="101" height="20" x="838" y="314" style="fill:black;" font-family="Arial" font-size="16px">Student ID</text>
   <rect width="101" height="20" x="833" y="320" style="fill:none;stroke:black;"/>
   <text width="101" height="20" x="838" y="334" style="fill:black;" font-family="Arial" font-size="16px">University ID</text>
   <rect width="101" height="20" x="834" y="45" style="fill:#007;stroke:black;"/>
   <text width="101" height="20" x="839" y="59" style="fill:#fff;" font-family="Arial" font-size="16px"> university</text>
   <rect width="101" height="20" x="834" y="65" style="fill:none;stroke:black;"/>
   <text width="101" height="20" x="839" y="79" style="fill:black;" font-family="Arial" font-size="16px">ID</text>
   <rect width="101" height="20" x="834" y="85" style="fill:none;stroke:black;"/>
   <text width="101" height="20" x="839" y="99" style="fill:black;" font-family="Arial" font-size="16px">Name</text>
   <rect width="101" height="20" x="834" y="105" style="fill:none;stroke:black;"/>
   <text width="101" height="20" x="839" y="119" style="fill:black;" font-family="Arial" font-size="16px">Web page</text>
   <rect width="101" height="20" x="834" y="125" style="fill:none;stroke:black;"/>
   <text width="101" height="20" x="839" y="139" style="fill:black;" font-family="Arial" font-size="16px">University ID</text>
   <rect width="81" height="20" x="1061" y="67" style="fill:#007;stroke:black;"/>
   <text width="81" height="20" x="1066" y="81" style="fill:#fff;" font-family="Arial" font-size="16px"> web_page</text>
   <rect width="81" height="20" x="1061" y="87" style="fill:none;stroke:black;"/>
   <text width="81" height="20" x="1066" y="101" style="fill:black;" font-family="Arial" font-size="16px">ID</text>
   <rect width="81" height="20" x="1061" y="107" style="fill:none;stroke:black;"/>
   <text width="81" height="20" x="1066" y="121" style="fill:black;" font-family="Arial" font-size="16px">Name</text>
   <rect width="100" height="20" x="112" y="131" style="fill:#007;stroke:black;"/>
   <text width="100" height="20" x="117" y="145" style="fill:#fff;" font-family="Arial" font-size="16px"> works_in</text>
   <rect width="100" height="20" x="112" y="151" style="fill:#aea;stroke:black;"/>
   <text width="100" height="20" x="117" y="165" style="fill:black;" font-family="Arial" font-size="16px">ID</text>
   <rect width="100" height="20" x="112" y="171" style="fill:none;stroke:black;"/>
   <text width="100" height="20" x="117" y="185" style="fill:black;" font-family="Arial" font-size="16px">Janitor ID</text>
   <rect width="100" height="20" x="112" y="191" style="fill:none;stroke:black;"/>
   <text width="100" height="20" x="117" y="205" style="fill:black;" font-family="Arial" font-size="16px">Dormitory ID</text>
</svg>
