<?xml version="1.0" encoding="UTF-8"?>
<!DOCTYPE svg
PUBLIC "-//W3C//DTD SVG 1.1//EN"
       "http://www.w3.org/Graphics/SVG/1.1/DTD/svg11.dtd">
<svg viewBox="47 -3 929 735" width="882px" height="738px" xmlns="http://www.w3.org/2000/svg" version="1.1">
   <line x1="518" y1="190" x2="508" y2="190" style="stroke:#cb0;stroke-width:1;"/>
   <line x1="338" y1="42" x2="328" y2="42" style="stroke:#cb0;stroke-width:1;"/>
   <line x1="508" y1="190" x2="338" y2="42" style="stroke:#cb0;stroke-width:1;"/>
   <line x1="510.5" y1="190" x2="514.03553390593" y2="193.53553390593" style="stroke:#cb0;stroke-width:2;"/>
   <line x1="510.5" y1="190" x2="514.03553390593" y2="186.46446609407" style="stroke:#cb0;stroke-width:2;"/>
   <line x1="333" y1="42" x2="336.53553390593" y2="45.535533905933" style="stroke:#cb0;stroke-width:2;"/>
   <line x1="333" y1="42" x2="336.53553390593" y2="38.464466094067" style="stroke:#cb0;stroke-width:2;"/>
   <line x1="405" y1="437" x2="415" y2="437" style="stroke:#c00;stroke-width:1;"/>
   <line x1="508" y1="110" x2="518" y2="110" style="stroke:#c00;stroke-width:1;"/>
   <line x1="415" y1="437" x2="508" y2="110" style="stroke:#c00;stroke-width:1;"/>
   <line x1="412.5" y1="437" x2="408.96446609407" y2="440.53553390593" style="stroke:#c00;stroke-width:2;"/>
   <line x1="412.5" y1="437" x2="408.96446609407" y2="433.46446609407" style="stroke:#c00;stroke-width:2;"/>
   <line x1="513" y1="110" x2="509.46446609407" y2="113.53553390593" style="stroke:#c00;stroke-width:2;"/>
   <line x1="513" y1="110" x2="509.46446609407" y2="106.46446609407" style="stroke:#c00;stroke-width:2;"/>
   <line x1="405" y1="437" x2="415" y2="437" style="stroke:#c00;stroke-width:1;"/>
   <line x1="508" y1="110" x2="518" y2="110" style="stroke:#c00;stroke-width:1;"/>
   <line x1="415" y1="437" x2="508" y2="110" style="stroke:#c00;stroke-width:1;"/>
   <line x1="412.5" y1="437" x2="408.96446609407" y2="440.53553390593" style="stroke:#c00;stroke-width:2;"/>
   <line x1="412.5" y1="437" x2="408.96446609407" y2="433.46446609407" style="stroke:#c00;stroke-width:2;"/>
   <line x1="513" y1="110" x2="509.46446609407" y2="113.53553390593" style="stroke:#c00;stroke-width:2;"/>
   <line x1="513" y1="110" x2="509.46446609407" y2="106.46446609407" style="stroke:#c00;stroke-width:2;"/>
   <line x1="890" y1="671" x2="900" y2="671" style="stroke:#cb0;stroke-width:1;"/>
   <line x1="924" y1="449" x2="914" y2="449" style="stroke:#cb0;stroke-width:1;"/>
   <line x1="900" y1="671" x2="924" y2="449" style="stroke:#cb0;stroke-width:1;"/>
   <line x1="897.5" y1="671" x2="893.96446609407" y2="674.53553390593" style="stroke:#cb0;stroke-width:2;"/>
   <line x1="897.5" y1="671" x2="893.96446609407" y2="667.46446609407" style="stroke:#cb0;stroke-width:2;"/>
   <line x1="919" y1="449" x2="922.53553390593" y2="452.53553390593" style="stroke:#cb0;stroke-width:2;"/>
   <line x1="919" y1="449" x2="922.53553390593" y2="445.46446609407" style="stroke:#cb0;stroke-width:2;"/>
   <line x1="202" y1="554" x2="212" y2="554" style="stroke:#cb0;stroke-width:1;"/>
   <line x1="294" y1="337" x2="304" y2="337" style="stroke:#cb0;stroke-width:1;"/>
   <line x1="212" y1="554" x2="294" y2="337" style="stroke:#cb0;stroke-width:1;"/>
   <line x1="209.5" y1="554" x2="205.96446609407" y2="557.53553390593" style="stroke:#cb0;stroke-width:2;"/>
   <line x1="209.5" y1="554" x2="205.96446609407" y2="550.46446609407" style="stroke:#cb0;stroke-width:2;"/>
   <line x1="299" y1="337" x2="295.46446609407" y2="340.53553390593" style="stroke:#cb0;stroke-width:2;"/>
   <line x1="299" y1="337" x2="295.46446609407" y2="333.46446609407" style="stroke:#cb0;stroke-width:2;"/>
   <line x1="94" y1="710" x2="84" y2="710" style="stroke:#0bf;stroke-width:1;"/>
   <line x1="74" y1="494" x2="84" y2="494" style="stroke:#0bf;stroke-width:1;"/>
   <line x1="84" y1="710" x2="74" y2="494" style="stroke:#0bf;stroke-width:1;"/>
   <line x1="86.5" y1="710" x2="90.035533905933" y2="713.53553390593" style="stroke:#0bf;stroke-width:2;"/>
   <line x1="86.5" y1="710" x2="90.035533905933" y2="706.46446609407" style="stroke:#0bf;stroke-width:2;"/>
   <line x1="79" y1="494" x2="75.464466094067" y2="497.53553390593" style="stroke:#0bf;stroke-width:2;"/>
   <line x1="79" y1="494" x2="75.464466094067" y2="490.46446609407" style="stroke:#0bf;stroke-width:2;"/>
   <line x1="62" y1="238" x2="52" y2="238" style="stroke:#b0b;stroke-width:1;"/>
   <line x1="74" y1="494" x2="84" y2="494" style="stroke:#b0b;stroke-width:1;"/>
   <line x1="52" y1="238" x2="74" y2="494" style="stroke:#b0b;stroke-width:1;"/>
   <line x1="54.5" y1="238" x2="58.035533905933" y2="241.53553390593" style="stroke:#b0b;stroke-width:2;"/>
   <line x1="54.5" y1="238" x2="58.035533905933" y2="234.46446609407" style="stroke:#b0b;stroke-width:2;"/>
   <line x1="79" y1="494" x2="75.464466094067" y2="497.53553390593" style="stroke:#b0b;stroke-width:2;"/>
   <line x1="79" y1="494" x2="75.464466094067" y2="490.46446609407" style="stroke:#b0b;stroke-width:2;"/>
   <line x1="163" y1="258" x2="173" y2="258" style="stroke:#cb0;stroke-width:1;"/>
   <line x1="238" y1="42" x2="248" y2="42" style="stroke:#cb0;stroke-width:1;"/>
   <line x1="173" y1="258" x2="238" y2="42" style="stroke:#cb0;stroke-width:1;"/>
   <line x1="170.5" y1="258" x2="166.96446609407" y2="261.53553390593" style="stroke:#cb0;stroke-width:2;"/>
   <line x1="170.5" y1="258" x2="166.96446609407" y2="254.46446609407" style="stroke:#cb0;stroke-width:2;"/>
   <line x1="243" y1="42" x2="239.46446609407" y2="45.535533905933" style="stroke:#cb0;stroke-width:2;"/>
   <line x1="243" y1="42" x2="239.46446609407" y2="38.464466094067" style="stroke:#cb0;stroke-width:2;"/>
   <line x1="809" y1="301" x2="819" y2="301" style="stroke:#0b0;stroke-width:1;"/>
   <line x1="801" y1="449" x2="811" y2="449" style="stroke:#0b0;stroke-width:1;"/>
   <line x1="819" y1="301" x2="801" y2="449" style="stroke:#0b0;stroke-width:1;"/>
   <line x1="816.5" y1="301" x2="812.96446609407" y2="304.53553390593" style="stroke:#0b0;stroke-width:2;"/>
   <line x1="816.5" y1="301" x2="812.96446609407" y2="297.46446609407" style="stroke:#0b0;stroke-width:2;"/>
   <line x1="806" y1="449" x2="802.46446609407" y2="452.53553390593" style="stroke:#0b0;stroke-width:2;"/>
   <line x1="806" y1="449" x2="802.46446609407" y2="445.46446609407" style="stroke:#0b0;stroke-width:2;"/>
   <line x1="708" y1="321" x2="698" y2="321" style="stroke:#333;stroke-width:1;"/>
   <line x1="631" y1="110" x2="621" y2="110" style="stroke:#333;stroke-width:1;"/>
   <line x1="698" y1="321" x2="631" y2="110" style="stroke:#333;stroke-width:1;"/>
   <line x1="700.5" y1="321" x2="704.03553390593" y2="324.53553390593" style="stroke:#333;stroke-width:2;"/>
   <line x1="700.5" y1="321" x2="704.03553390593" y2="317.46446609407" style="stroke:#333;stroke-width:2;"/>
   <line x1="626" y1="110" x2="629.53553390593" y2="113.53553390593" style="stroke:#333;stroke-width:2;"/>
   <line x1="626" y1="110" x2="629.53553390593" y2="106.46446609407" style="stroke:#333;stroke-width:2;"/>
   <line x1="708" y1="321" x2="698" y2="321" style="stroke:#cb0;stroke-width:1;"/>
   <line x1="631" y1="110" x2="621" y2="110" style="stroke:#cb0;stroke-width:1;"/>
   <line x1="698" y1="321" x2="631" y2="110" style="stroke:#cb0;stroke-width:1;"/>
   <line x1="700.5" y1="321" x2="704.03553390593" y2="324.53553390593" style="stroke:#cb0;stroke-width:2;"/>
   <line x1="700.5" y1="321" x2="704.03553390593" y2="317.46446609407" style="stroke:#cb0;stroke-width:2;"/>
   <line x1="626" y1="110" x2="629.53553390593" y2="113.53553390593" style="stroke:#cb0;stroke-width:2;"/>
   <line x1="626" y1="110" x2="629.53553390593" y2="106.46446609407" style="stroke:#cb0;stroke-width:2;"/>
   <line x1="708" y1="321" x2="698" y2="321" style="stroke:#cb0;stroke-width:1;"/>
   <line x1="631" y1="110" x2="621" y2="110" style="stroke:#cb0;stroke-width:1;"/>
   <line x1="698" y1="321" x2="631" y2="110" style="stroke:#cb0;stroke-width:1;"/>
   <line x1="700.5" y1="321" x2="704.03553390593" y2="324.53553390593" style="stroke:#cb0;stroke-width:2;"/>
   <line x1="700.5" y1="321" x2="704.03553390593" y2="317.46446609407" style="stroke:#cb0;stroke-width:2;"/>
   <line x1="626" y1="110" x2="629.53553390593" y2="113.53553390593" style="stroke:#cb0;stroke-width:2;"/>
   <line x1="626" y1="110" x2="629.53553390593" y2="106.46446609407" style="stroke:#cb0;stroke-width:2;"/>
   <rect width="103" height="20" x="518" y="80" style="fill:#007;stroke:black;"/>
   <text width="103" height="20" x="523" y="94" style="fill:#fff;" font-family="Arial" font-size="16px"> dormitory</text>
   <rect width="103" height="20" x="518" y="100" style="fill:#aea;stroke:black;"/>
   <text width="103" height="20" x="523" y="114" style="fill:black;" font-family="Arial" font-size="16px">ID</text>
   <rect width="103" height="20" x="518" y="120" style="fill:none;stroke:black;"/>
   <text width="103" height="20" x="523" y="134" style="fill:black;" font-family="Arial" font-size="16px">Address</text>
   <rect width="103" height="20" x="518" y="140" style="fill:none;stroke:black;"/>
   <text width="103" height="20" x="523" y="154" style="fill:black;" font-family="Arial" font-size="16px">Name</text>
   <rect width="103" height="20" x="518" y="160" style="fill:none;stroke:black;"/>
   <text width="103" height="20" x="523" y="174" style="fill:black;" font-family="Arial" font-size="16px">HasBedBugs</text>
   <rect width="103" height="20" x="518" y="180" style="fill:none;stroke:black;"/>
   <text width="103" height="20" x="523" y="194" style="fill:black;" font-family="Arial" font-size="16px">ID_University</text>
   <rect width="101" height="20" x="304" y="307" style="fill:#007;stroke:black;"/>
   <text width="101" height="20" x="309" y="321" style="fill:#fff;" font-family="Arial" font-size="16px"> dorm_room</text>
   <rect width="101" height="20" x="304" y="327" style="fill:#aea;stroke:black;"/>
   <text width="101" height="20" x="309" y="341" style="fill:black;" font-family="Arial" font-size="16px">ID</text>
   <rect width="101" height="20" x="304" y="347" style="fill:none;stroke:black;"/>
   <text width="101" height="20" x="309" y="361" style="fill:black;" font-family="Arial" font-size="16px">Floor</text>
   <rect width="101" height="20" x="304" y="367" style="fill:none;stroke:black;"/>
   <text width="101" height="20" x="309" y="381" style="fill:black;" font-family="Arial" font-size="16px">Number</text>
   <rect width="101" height="20" x="304" y="387" style="fill:none;stroke:black;"/>
   <text width="101" height="20" x="309" y="401" style="fill:black;" font-family="Arial" font-size="16px">Capacity</text>
   <rect width="101" height="20" x="304" y="407" style="fill:none;stroke:black;"/>
   <text width="101" height="20" x="309" y="421" style="fill:black;" font-family="Arial" font-size="16px">HasToilet</text>
   <rect width="101" height="20" x="304" y="427" style="fill:none;stroke:black;"/>
   <text width="101" height="20" x="309" y="441" style="fill:black;" font-family="Arial" font-size="16px">ID_Dormitory</text>
   <rect width="103" height="20" x="811" y="419" style="fill:#007;stroke:black;"/>
   <text width="103" height="20" x="816" y="433" style="fill:#fff;" font-family="Arial" font-size="16px"> janitor</text>
   <rect width="103" height="20" x="811" y="439" style="fill:#aea;stroke:black;"/>
   <text width="103" height="20" x="816" y="453" style="fill:black;" font-family="Arial" font-size="16px">ID</text>
   <rect width="103" height="20" x="811" y="459" style="fill:none;stroke:black;"/>
   <text width="103" height="20" x="816" y="473" style="fill:black;" font-family="Arial" font-size="16px">FirstName</text>
   <rect width="103" height="20" x="811" y="479" style="fill:none;stroke:black;"/>
   <text width="103" height="20" x="816" y="493" style="fill:black;" font-family="Arial" font-size="16px">LastName</text>
   <rect width="103" height="20" x="811" y="499" style="fill:none;stroke:black;"/>
   <text width="103" height="20" x="816" y="513" style="fill:black;" font-family="Arial" font-size="16px">Owns_Broom</text>
   <rect width="149" height="20" x="741" y="601" style="fill:#007;stroke:black;"/>
   <text width="149" height="20" x="746" y="615" style="fill:#fff;" font-family="Arial" font-size="16px"> janitor_middle_name</text>
   <rect width="149" height="20" x="741" y="621" style="fill:#aea;stroke:black;"/>
   <text width="149" height="20" x="746" y="635" style="fill:black;" font-family="Arial" font-size="16px">ID</text>
   <rect width="149" height="20" x="741" y="641" style="fill:none;stroke:black;"/>
   <text width="149" height="20" x="746" y="655" style="fill:black;" font-family="Arial" font-size="16px">Name</text>
   <rect width="149" height="20" x="741" y="661" style="fill:none;stroke:black;"/>
   <text width="149" height="20" x="746" y="675" style="fill:black;" font-family="Arial" font-size="16px">ID_Janitor</text>
   <rect width="118" height="20" x="84" y="464" style="fill:#007;stroke:black;"/>
   <text width="118" height="20" x="89" y="478" style="fill:#fff;" font-family="Arial" font-size="16px"> student</text>
   <rect width="118" height="20" x="84" y="484" style="fill:#aea;stroke:black;"/>
   <text width="118" height="20" x="89" y="498" style="fill:black;" font-family="Arial" font-size="16px">ID</text>
   <rect width="118" height="20" x="84" y="504" style="fill:none;stroke:black;"/>
   <text width="118" height="20" x="89" y="518" style="fill:black;" font-family="Arial" font-size="16px">FirstName</text>
   <rect width="118" height="20" x="84" y="524" style="fill:none;stroke:black;"/>
   <text width="118" height="20" x="89" y="538" style="fill:black;" font-family="Arial" font-size="16px">LastName</text>
   <rect width="118" height="20" x="84" y="544" style="fill:none;stroke:black;"/>
   <text width="118" height="20" x="89" y="558" style="fill:black;" font-family="Arial" font-size="16px">ID_Dorm_Room</text>
   <rect width="156" height="20" x="94" y="640" style="fill:#007;stroke:black;"/>
   <text width="156" height="20" x="99" y="654" style="fill:#fff;" font-family="Arial" font-size="16px"> student_middle_name</text>
   <rect width="156" height="20" x="94" y="660" style="fill:#aea;stroke:black;"/>
   <text width="156" height="20" x="99" y="674" style="fill:black;" font-family="Arial" font-size="16px">ID</text>
   <rect width="156" height="20" x="94" y="680" style="fill:none;stroke:black;"/>
   <text width="156" height="20" x="99" y="694" style="fill:black;" font-family="Arial" font-size="16px">Name</text>
   <rect width="156" height="20" x="94" y="700" style="fill:none;stroke:black;"/>
   <text width="156" height="20" x="99" y="714" style="fill:black;" font-family="Arial" font-size="16px">ID_Student</text>
   <rect width="101" height="20" x="62" y="188" style="fill:#007;stroke:black;"/>
   <text width="101" height="20" x="67" y="202" style="fill:#fff;" font-family="Arial" font-size="16px"> studies_at</text>
   <rect width="101" height="20" x="62" y="208" style="fill:#aea;stroke:black;"/>
   <text width="101" height="20" x="67" y="222" style="fill:black;" font-family="Arial" font-size="16px">ID</text>
   <rect width="101" height="20" x="62" y="228" style="fill:none;stroke:black;"/>
   <text width="101" height="20" x="67" y="242" style="fill:black;" font-family="Arial" font-size="16px">ID_Student</text>
   <rect width="101" height="20" x="62" y="248" style="fill:none;stroke:black;"/>
   <text width="101" height="20" x="67" y="262" style="fill:black;" font-family="Arial" font-size="16px">ID_University</text>
   <rect width="80" height="20" x="248" y="12" style="fill:#007;stroke:black;"/>
   <text width="80" height="20" x="253" y="26" style="fill:#fff;" font-family="Arial" font-size="16px"> university</text>
   <rect width="80" height="20" x="248" y="32" style="fill:#aea;stroke:black;"/>
   <text width="80" height="20" x="253" y="46" style="fill:black;" font-family="Arial" font-size="16px">ID</text>
   <rect width="80" height="20" x="248" y="52" style="fill:none;stroke:black;"/>
   <text width="80" height="20" x="253" y="66" style="fill:black;" font-family="Arial" font-size="16px">Name</text>
   <rect width="80" height="20" x="248" y="72" style="fill:none;stroke:black;"/>
   <text width="80" height="20" x="253" y="86" style="fill:black;" font-family="Arial" font-size="16px">WebPage</text>
   <rect width="101" height="20" x="708" y="251" style="fill:#007;stroke:black;"/>
   <text width="101" height="20" x="713" y="265" style="fill:#fff;" font-family="Arial" font-size="16px"> works_in</text>
   <rect width="101" height="20" x="708" y="271" style="fill:#aea;stroke:black;"/>
   <text width="101" height="20" x="713" y="285" style="fill:black;" font-family="Arial" font-size="16px">ID</text>
   <rect width="101" height="20" x="708" y="291" style="fill:none;stroke:black;"/>
   <text width="101" height="20" x="713" y="305" style="fill:black;" font-family="Arial" font-size="16px">ID_Janitor</text>
   <rect width="101" height="20" x="708" y="311" style="fill:none;stroke:black;"/>
   <text width="101" height="20" x="713" y="325" style="fill:black;" font-family="Arial" font-size="16px">ID_Dormitory</text>
</svg>
